<?xml version="1.0" standalone="no"?>
<!DOCTYPE svg PUBLIC "-//W3C//DTD SVG 20010904//EN"
 "http://www.w3.org/TR/2001/REC-SVG-20010904/DTD/svg10.dtd">
<svg version="1.0" xmlns="http://www.w3.org/2000/svg"
 width="1489.000000pt" height="1288.000000pt" viewBox="0 0 1489.000000 1288.000000"
 preserveAspectRatio="xMidYMid meet">

<g transform="translate(0.000000,1288.000000) scale(0.100000,-0.100000)"
fill="#000000" stroke="none">
<path d="M4266 12008 c-68 -109 -3116 -5401 -3116 -5411 0 -8 178 -117 396
-243 372 -214 395 -229 366 -236 -39 -10 -72 -52 -72 -90 0 -22 11 -39 42 -66
23 -20 173 -157 335 -303 l294 -267 314 -181 c175 -101 325 -181 339 -181 15
0 48 20 85 51 41 34 62 46 66 37 2 -7 10 -33 17 -58 21 -72 85 -184 142 -247
29 -32 51 -64 49 -70 -13 -37 181 -364 206 -348 5 2 12 -12 16 -33 10 -56 66
-169 119 -240 25 -34 46 -64 46 -66 0 -3 -22 -12 -49 -21 -87 -28 -82 -5 -81
-416 l0 -363 90 -417 c50 -230 95 -429 101 -442 6 -14 22 -30 36 -36 49 -22
93 -9 117 37 14 24 15 -21 16 -431 l0 -457 3143 2 3142 3 5 450 c3 248 8 441
13 429 19 -54 118 -58 146 -6 5 10 53 219 105 463 l96 446 0 331 c0 230 -4
339 -12 357 -8 18 -28 31 -70 46 -32 12 -58 24 -58 26 0 2 18 25 39 51 62 74
152 261 143 295 -1 5 2 6 7 3 24 -15 151 184 193 302 14 39 41 85 71 120 57
66 81 108 123 214 l30 78 25 -17 c13 -9 39 -29 57 -45 19 -16 44 -28 61 -28
17 0 92 37 197 98 93 55 233 136 311 181 136 79 156 94 435 348 161 146 312
283 336 304 44 40 53 70 31 112 -16 29 -13 27 -53 41 l-35 12 381 220 c210
120 390 226 400 234 18 14 -53 140 -1549 2732 -862 1495 -1573 2718 -1580
2718 -9 0 -362 -201 -768 -437 -45 -26 -55 -30 -40 -14 44 50 6 141 -59 141
-17 0 -215 -59 -441 -131 l-410 -131 -308 -176 c-169 -98 -317 -186 -329 -196
-19 -18 -20 -26 -14 -104 l7 -85 -23 7 c-84 22 -192 29 -271 16 -102 -16 -118
-16 -243 0 -83 10 -120 10 -200 0 -122 -16 -127 -16 -244 0 -82 12 -106 11
-180 -2 -49 -9 -89 -12 -94 -7 -6 5 -5 32 2 70 9 49 9 67 -2 87 -12 23 -315
206 -581 352 -73 40 -866 300 -916 300 -60 0 -99 -69 -72 -124 l15 -29 -34 20
c-137 83 -769 443 -777 443 -6 0 -17 -10 -25 -22z m6400 -669 c205 -356 374
-651 376 -657 2 -9 -1747 -1029 -1775 -1035 -9 -2 -778 1324 -774 1336 1 5
403 240 892 522 768 443 891 511 899 497 5 -9 177 -308 382 -663z m-5471 156
c484 -279 881 -508 881 -509 4 -4 -775 -1341 -780 -1339 -4 1 -407 232 -895
514 l-888 512 142 246 c599 1040 630 1092 645 1088 9 -2 412 -233 895 -512z
m230 67 c110 -63 226 -130 259 -150 l59 -35 -25 -13 c-29 -15 -53 -66 -44 -90
9 -23 -6 -16 -143 65 -64 37 -185 107 -269 156 -166 95 -187 116 -160 165 7
14 24 30 38 37 29 14 16 20 285 -135z m4028 116 c9 -11 17 -30 17 -43 0 -13
-8 -32 -17 -43 -21 -25 -557 -335 -560 -324 -1 4 -4 20 -8 35 -3 16 -18 40
-32 53 -14 13 -24 26 -22 28 2 2 130 76 284 165 291 167 301 171 338 129z
m-3785 -130 l343 -109 254 -147 c139 -81 253 -148 252 -149 -2 -1 -167 51
-367 115 l-365 117 -250 144 c-137 79 -252 146 -255 149 -7 6 -8 6 388 -120z
m3597 109 c-11 -8 -126 -75 -255 -149 l-235 -135 -355 -113 c-195 -62 -362
-115 -370 -118 -14 -4 318 192 447 265 38 21 199 78 415 148 194 62 357 114
363 114 5 1 1 -5 -10 -12z m-3082 -428 c227 -73 422 -137 435 -142 32 -15 35
-40 14 -147 l-17 -95 -109 -3 c-67 -2 -105 1 -102 7 5 8 -36 116 -49 129 -2 3
-58 10 -124 17 l-119 12 -188 109 c-200 115 -234 140 -234 174 0 25 42 70 65
70 9 0 201 -59 428 -131z m2666 105 c24 -30 27 -63 9 -86 -7 -9 -103 -67 -213
-130 l-200 -115 -113 -11 c-62 -6 -119 -15 -126 -21 -8 -7 -22 -39 -32 -72
l-19 -59 -105 2 -105 3 -18 99 c-25 136 -30 131 180 198 92 29 281 90 418 134
138 45 262 82 277 83 18 1 33 -8 47 -25z m-2669 -494 l-142 -5 -26 -30 c-15
-17 -175 -288 -357 -602 -181 -315 -333 -573 -338 -573 -4 0 -1 10 7 23 7 12
175 301 371 642 197 341 366 634 377 652 l19 32 115 -67 115 -67 -141 -5z m91
78 c60 -34 109 -66 109 -71 0 -13 -24 -2 -140 65 -123 71 -118 68 -95 68 9 0
66 -28 126 -62z m55 47 c13 -3 27 -19 37 -45 l16 -41 -67 37 c-108 60 -111 62
-55 57 26 -2 57 -6 69 -8z m2020 8 c-19 -19 -151 -90 -154 -83 -2 5 4 22 13
39 16 32 31 38 100 44 22 2 42 4 44 5 2 1 1 -1 -3 -5z m79 -1 c-17 -15 -226
-132 -236 -132 -25 0 1 21 99 77 59 34 116 62 127 62 11 1 15 -3 10 -7z m425
-649 c206 -357 380 -659 389 -673 13 -23 13 -24 -1 -10 -9 8 -136 224 -283
480 -371 646 -402 697 -422 706 -10 4 -80 10 -155 13 l-137 6 107 62 c59 34
112 62 118 62 6 1 179 -290 384 -646z m-4420 -198 c465 -268 848 -490 853
-494 5 -5 -750 -1333 -767 -1347 -4 -4 -1781 1028 -1781 1034 0 5 173 308 385
675 l384 666 41 -23 c22 -13 420 -243 885 -511z m7020 -143 c212 -367 379
-667 374 -672 -11 -10 -1778 -1030 -1780 -1027 -14 21 -763 1326 -766 1334 -3
14 1773 1045 1783 1034 4 -3 179 -304 389 -669z m-6151 -394 c-7 -12 -178
-311 -381 -663 -328 -568 -401 -690 -387 -649 8 23 774 1343 777 1339 2 -2 -2
-14 -9 -27z m4350 -646 c210 -365 381 -666 378 -668 -4 -4 -777 1331 -777
1343 0 16 31 -36 399 -675z m-6013 -171 l872 -503 -117 -202 c-532 -923 -657
-1136 -663 -1136 -13 0 -1778 1022 -1778 1030 0 6 595 1041 731 1273 39 65 42
68 62 54 12 -7 414 -240 893 -516z m8564 -87 c195 -339 369 -642 387 -673 l32
-56 -888 -512 c-488 -282 -892 -513 -897 -513 -16 0 -777 1331 -767 1341 10
10 1764 1027 1773 1028 3 0 165 -277 360 -615z m-7681 -446 c-16 -31 -761
-1322 -765 -1327 -27 -31 51 110 340 611 429 743 426 738 432 738 2 0 -1 -10
-7 -22z m5899 -628 c198 -344 370 -643 382 -665 13 -22 16 -33 8 -25 -8 8
-178 299 -378 645 -199 347 -372 646 -383 665 -12 21 -14 29 -5 20 9 -8 177
-296 376 -640z m-2858 441 c519 -109 933 -495 1074 -1001 45 -165 61 -413 36
-580 -21 -142 -80 -325 -138 -430 -206 -373 -548 -633 -952 -724 -476 -107
-982 51 -1319 411 -89 94 -194 241 -243 336 -35 71 -91 235 -113 337 -10 44
-19 142 -22 235 -8 254 32 436 147 670 188 382 552 661 973 744 139 28 162 29
322 26 90 -2 174 -11 235 -24z m-4743 -617 c483 -279 884 -512 891 -519 10 -9
-43 -107 -255 -472 -356 -612 -493 -846 -503 -857 -5 -4 -161 80 -350 189
-203 117 -347 194 -356 191 -8 -3 -13 -2 -11 2 3 4 -238 147 -534 317 -296
171 -538 313 -536 316 3 10 771 1339 773 1339 1 0 398 -228 881 -506z m10203
-172 c210 -365 381 -665 379 -667 -11 -10 -1081 -625 -1089 -625 -5 0 -161
-88 -346 -195 -186 -107 -341 -195 -345 -195 -4 0 -44 64 -89 143 -45 78 -101
171 -123 207 -111 178 -565 976 -559 982 23 22 1778 1026 1783 1020 4 -4 179
-305 389 -670z m-9319 -444 c-26 -46 -142 -245 -256 -443 -114 -198 -222 -382
-240 -410 -75 -116 -139 -239 -139 -270 0 -20 22 -68 63 -139 34 -59 60 -110
58 -113 -4 -3 -182 94 -225 122 -1 2 51 94 117 206 65 112 240 412 387 667
148 254 272 462 276 462 4 0 -14 -37 -41 -82z m7389 -373 c139 -242 265 -458
280 -480 14 -22 73 -120 129 -219 80 -139 100 -180 90 -187 -51 -33 -211 -120
-214 -117 -3 2 23 51 57 109 82 139 82 150 -1 294 -36 61 -70 117 -77 125 -17
21 -534 918 -534 927 0 16 26 -28 270 -452z m-9026 -408 c61 -35 124 -69 140
-75 16 -7 92 -49 168 -94 l139 -80 -30 -19 c-28 -17 -34 -29 -43 -81 -3 -20
16 -29 -320 165 -92 54 -180 103 -195 109 -65 28 -83 78 -43 118 32 32 66 24
184 -43z m10618 46 c11 -10 18 -30 18 -55 0 -36 -3 -40 -42 -57 -24 -10 -153
-82 -286 -160 -134 -77 -246 -141 -248 -141 -2 0 -4 12 -4 28 0 33 -24 71 -52
81 -17 6 9 24 138 98 88 50 168 93 179 97 11 3 65 33 120 66 105 63 145 72
177 43z m-10434 -325 l213 -123 285 -258 c156 -142 284 -259 284 -261 0 -3
-114 62 -254 143 l-255 147 -247 224 c-136 124 -266 242 -288 263 l-41 38 45
-25 c25 -14 141 -81 258 -148z m10362 168 c0 -3 -128 -121 -284 -263 l-284
-258 -208 -120 c-115 -66 -230 -132 -256 -148 -26 -15 -48 -26 -48 -23 0 2
128 119 283 261 l284 257 254 148 c281 164 259 152 259 146z m-10047 -172 c76
-39 364 -209 382 -225 12 -10 48 -57 80 -104 58 -82 61 -85 100 -85 22 0 56 5
75 10 41 12 44 9 102 -99 l38 -69 -76 -66 c-55 -48 -83 -66 -104 -66 -23 0
-88 55 -364 306 -311 283 -336 308 -336 338 0 37 24 64 68 75 2 1 17 -6 35
-15z m9505 0 c35 -24 44 -49 30 -82 -13 -29 -645 -611 -677 -624 -26 -9 -68
15 -138 80 l-63 57 51 88 c39 67 55 87 68 82 8 -3 43 -9 76 -11 l60 -6 60 87
c33 47 67 93 77 102 23 20 410 243 423 243 6 0 21 -7 33 -16z m-8935 -306 c48
-28 87 -54 87 -59 0 -5 -2 -9 -5 -9 -17 0 -225 128 -235 144 -11 18 -9 17 26
-4 22 -12 78 -45 127 -72z m8448 74 c-12 -23 -229 -147 -239 -137 -4 4 -2 10
3 12 6 2 62 35 125 73 63 38 116 69 118 69 1 1 -2 -7 -7 -17z m-8418 -136 c28
-17 20 -26 -25 -26 -45 1 -48 3 -94 75 l-19 29 60 -34 c33 -18 68 -38 78 -44z
m8336 20 c-28 -40 -37 -46 -69 -46 -20 0 -40 3 -43 7 -7 6 134 93 142 87 2 -2
-12 -23 -30 -48z m-7457 -1435 c27 -46 48 -87 48 -92 0 -6 -16 -31 -35 -56
-19 -25 -35 -49 -35 -53 0 -4 22 -56 50 -116 l50 -109 0 -222 c0 -216 -6 -268
-33 -285 -23 -14 -74 -8 -91 11 -12 13 -48 163 -112 457 -52 242 -94 444 -94
450 0 25 31 47 105 74 44 16 84 28 90 26 5 -1 31 -40 57 -85z m6616 62 c84
-29 112 -47 112 -73 0 -10 -43 -217 -95 -461 -69 -323 -100 -447 -112 -456
-24 -18 -73 -16 -95 4 -16 15 -18 37 -18 263 l0 247 45 102 c25 56 45 106 45
112 0 6 -16 31 -35 56 -21 28 -33 53 -30 62 10 26 96 171 102 171 3 0 39 -12
81 -27z m-6701 -1231 l-2 -282 -83 387 -83 388 1 280 2 280 84 -385 84 -385
-3 -283z m173 900 c0 -86 -3 -122 -10 -112 -13 20 -13 253 0 245 6 -4 10 -59
10 -133z m6311 -120 c-7 -12 -10 19 -11 105 0 162 14 191 18 35 1 -69 -2 -130
-7 -140z m78 184 c0 -6 -11 -33 -24 -61 l-23 -50 -1 94 -1 95 25 -34 c14 -19
25 -39 24 -44z m-6430 -18 l0 -83 -26 51 -26 52 22 31 c12 17 24 31 27 31 2 0
4 -37 3 -82z m6599 -848 l-83 -385 -3 270 -3 270 83 388 83 389 3 -274 2 -273
-82 -385z m-6459 751 c39 -65 78 -122 88 -127 10 -5 326 -11 703 -14 l685 -5
-777 -3 -778 -2 0 135 c0 74 2 135 4 135 3 0 36 -53 75 -119z m6181 -16 l0
-135 -777 2 -778 3 685 5 c608 4 689 7 710 21 14 9 54 66 89 128 35 61 65 111
67 111 2 0 4 -61 4 -135z m-3522 -132 c-212 -2 -563 -2 -780 0 -216 1 -42 2
387 2 429 0 606 -1 393 -2z m1570 0 c-212 -2 -563 -2 -780 0 -216 1 -42 2 387
2 429 0 606 -1 393 -2z m-2758 -1003 l0 -980 -775 0 -775 0 0 980 0 980 775 0
775 0 0 -980z m1570 0 l0 -980 -775 0 -775 0 0 980 0 980 775 0 775 0 0 -980z
m1570 0 l0 -980 -775 0 -775 0 0 980 0 980 775 0 775 0 0 -980z m1570 0 l0
-980 -775 0 -775 0 0 980 0 980 775 0 775 0 0 -980z m-6308 -100 c-24 -31 -76
-39 -103 -14 -18 16 -19 35 -19 331 0 307 0 313 19 303 28 -14 74 -12 97 4 19
14 19 9 22 -292 2 -286 1 -309 -16 -332z m6411 610 c16 0 37 5 48 10 19 10 19
4 19 -301 0 -277 -2 -315 -17 -331 -23 -26 -69 -23 -98 7 l-25 24 0 311 0 311
22 -15 c12 -9 35 -16 51 -16z"/>
<path d="M6632 7813 c-101 -50 -117 -180 -33 -264 103 -104 273 -28 273 121 0
60 -39 126 -87 146 -45 19 -112 17 -153 -3z m157 -21 c124 -92 72 -272 -79
-272 -158 0 -210 215 -67 281 50 23 108 20 146 -9z"/>
<path d="M6662 7720 c-59 -56 6 -152 77 -115 47 24 56 78 18 113 -29 28 -67
28 -95 2z m94 -25 c13 -21 15 -31 6 -50 -22 -48 -95 -41 -108 11 -14 57 69 89
102 39z"/>
<path d="M8360 6829 c-35 -14 -59 -38 -81 -81 -41 -80 -10 -175 71 -215 79
-40 155 -24 206 43 25 32 29 46 29 100 0 70 -17 102 -75 142 -36 24 -104 29
-150 11z m126 -18 c80 -37 111 -115 75 -196 -43 -98 -164 -119 -240 -41 -77
80 -50 204 54 241 52 18 62 18 111 -4z"/>
<path d="M8387 6739 c-48 -28 -40 -107 13 -129 58 -24 120 44 90 99 -20 38
-66 51 -103 30z m81 -21 c31 -31 3 -98 -40 -98 -49 0 -76 61 -42 94 18 19 65
21 82 4z"/>
<path d="M6645 5848 c-70 -38 -113 -116 -100 -181 31 -146 208 -185 298 -66
79 106 -4 260 -140 259 -21 0 -47 -6 -58 -12z m154 -35 c116 -88 52 -266 -96
-266 -101 0 -176 121 -129 211 46 89 146 113 225 55z"/>
<path d="M6667 5750 c-20 -16 -27 -30 -27 -55 0 -65 72 -93 123 -48 37 34 11
105 -43 118 -18 4 -34 0 -53 -15z m90 -26 c15 -24 15 -29 2 -53 -27 -48 -109
-32 -109 22 0 56 76 77 107 31z"/>
</g>
</svg>
